<svg xmlns="http://www.w3.org/2000/svg" viewBox="0 0 766 160" width="766" height="160" role="img" aria-label="Synthwave coding grid">
  <defs>
    <linearGradient id="bgGrad" x1="0" y1="0" x2="1" y2="1">
      <stop offset="0%" stop-color="#1a0b2e"/>
      <stop offset="100%" stop-color="#2a1645"/>
    </linearGradient>
    <linearGradient id="scan" x1="0" y1="0" x2="1" y2="0">
      <stop offset="0%"   stop-color="#ff6ec7" stop-opacity="0"/>
      <stop offset="45%"  stop-color="#ff6ec7" stop-opacity="0.0"/>
      <stop offset="50%"  stop-color="#ff6ec7" stop-opacity="0.35"/>
      <stop offset="55%"  stop-color="#ff6ec7" stop-opacity="0.0"/>
      <stop offset="100%" stop-color="#ff6ec7" stop-opacity="0"/>
    </linearGradient>
    <style><![CDATA[
      .cell { transform-origin: center; }
      @keyframes pulse {
        0%, 100% { opacity: 0.55; }
        50%      { opacity: 1; }
      }
      @keyframes glow {
        0%, 100% { opacity: 0.65; filter: none; }
        50%      { opacity: 1;    filter: brightness(1.4); }
      }
      @keyframes drift {
        0%   { transform: translateX(-100%); }
        100% { transform: translateX(100%); }
      }
      .p0 { opacity: 0.55; }
      .p1 { animation: pulse 3.6s ease-in-out infinite; }
      .p2 { animation: glow  3.0s ease-in-out infinite; }
      .p3 { animation: glow  2.4s ease-in-out infinite; }
      .p4 { animation: glow  1.8s ease-in-out infinite; }
      .scan-layer { animation: drift 6s linear infinite; }
      .title { font-family: 'Fira Code', 'JetBrains Mono', monospace; font-size: 16px; font-weight: 600; fill: #ff6ec7; }
      .subtitle { font-family: 'Fira Code', 'JetBrains Mono', monospace; font-size: 11px; fill: #b8c5d6; opacity: 0.7; }
      .cursor { animation: pulse 1s steps(2) infinite; }
    ]]></style>
  </defs>
  <rect width="766" height="160" fill="url(#bgGrad)" rx="10"/>
  <text x="20" y="28" class="title">// always.coding<tspan class="cursor">();</tspan></text>
  <text x="746" y="28" class="subtitle" text-anchor="end">caiocv18 · synthwave grid</text>
    <rect class="cell p2" x="20" y="48" width="12" height="12" rx="2" ry="2" fill="#ff6ec7" style="animation-delay:0.00s"/>
  <rect class="cell p0" x="34" y="48" width="12" height="12" rx="2" ry="2" fill="#21262d" style="animation-delay:0.04s"/>
  <rect class="cell p0" x="48" y="48" width="12" height="12" rx="2" ry="2" fill="#21262d" style="animation-delay:0.08s"/>
  <rect class="cell p4" x="62" y="48" width="12" height="12" rx="2" ry="2" fill="#ffce5c" style="animation-delay:0.12s"/>
  <rect class="cell p0" x="76" y="48" width="12" height="12" rx="2" ry="2" fill="#21262d" style="animation-delay:0.16s"/>
  <rect class="cell p0" x="90" y="48" width="12" height="12" rx="2" ry="2" fill="#21262d" style="animation-delay:0.20s"/>
  <rect class="cell p0" x="104" y="48" width="12" height="12" rx="2" ry="2" fill="#21262d" style="animation-delay:0.24s"/>
  <rect class="cell p0" x="118" y="48" width="12" height="12" rx="2" ry="2" fill="#21262d" style="animation-delay:0.28s"/>
  <rect class="cell p4" x="132" y="48" width="12" height="12" rx="2" ry="2" fill="#ffce5c" style="animation-delay:0.32s"/>
  <rect class="cell p0" x="146" y="48" width="12" height="12" rx="2" ry="2" fill="#21262d" style="animation-delay:0.36s"/>
  <rect class="cell p3" x="160" y="48" width="12" height="12" rx="2" ry="2" fill="#00f5ff" style="animation-delay:0.40s"/>
  <rect class="cell p4" x="174" y="48" width="12" height="12" rx="2" ry="2" fill="#ffce5c" style="animation-delay:0.44s"/>
  <rect class="cell p1" x="188" y="48" width="12" height="12" rx="2" ry="2" fill="#4a3a6b" style="animation-delay:0.48s"/>
  <rect class="cell p0" x="202" y="48" width="12" height="12" rx="2" ry="2" fill="#21262d" style="animation-delay:0.52s"/>
  <rect class="cell p2" x="216" y="48" width="12" height="12" rx="2" ry="2" fill="#ff6ec7" style="animation-delay:0.56s"/>
  <rect class="cell p1" x="230" y="48" width="12" height="12" rx="2" ry="2" fill="#4a3a6b" style="animation-delay:0.60s"/>
  <rect class="cell p0" x="244" y="48" width="12" height="12" rx="2" ry="2" fill="#21262d" style="animation-delay:0.64s"/>
  <rect class="cell p0" x="258" y="48" width="12" height="12" rx="2" ry="2" fill="#21262d" style="animation-delay:0.68s"/>
  <rect class="cell p0" x="272" y="48" width="12" height="12" rx="2" ry="2" fill="#21262d" style="animation-delay:0.72s"/>
  <rect class="cell p0" x="286" y="48" width="12" height="12" rx="2" ry="2" fill="#21262d" style="animation-delay:0.76s"/>
  <rect class="cell p0" x="300" y="48" width="12" height="12" rx="2" ry="2" fill="#21262d" style="animation-delay:0.80s"/>
  <rect class="cell p1" x="314" y="48" width="12" height="12" rx="2" ry="2" fill="#4a3a6b" style="animation-delay:0.84s"/>
  <rect class="cell p2" x="328" y="48" width="12" height="12" rx="2" ry="2" fill="#ff6ec7" style="animation-delay:0.88s"/>
  <rect class="cell p0" x="342" y="48" width="12" height="12" rx="2" ry="2" fill="#21262d" style="animation-delay:0.92s"/>
  <rect class="cell p1" x="356" y="48" width="12" height="12" rx="2" ry="2" fill="#4a3a6b" style="animation-delay:0.96s"/>
  <rect class="cell p0" x="370" y="48" width="12" height="12" rx="2" ry="2" fill="#21262d" style="animation-delay:1.00s"/>
  <rect class="cell p3" x="384" y="48" width="12" height="12" rx="2" ry="2" fill="#00f5ff" style="animation-delay:1.04s"/>
  <rect class="cell p2" x="398" y="48" width="12" height="12" rx="2" ry="2" fill="#ff6ec7" style="animation-delay:1.08s"/>
  <rect class="cell p3" x="412" y="48" width="12" height="12" rx="2" ry="2" fill="#00f5ff" style="animation-delay:1.12s"/>
  <rect class="cell p1" x="426" y="48" width="12" height="12" rx="2" ry="2" fill="#4a3a6b" style="animation-delay:1.16s"/>
  <rect class="cell p1" x="440" y="48" width="12" height="12" rx="2" ry="2" fill="#4a3a6b" style="animation-delay:1.20s"/>
  <rect class="cell p0" x="454" y="48" width="12" height="12" rx="2" ry="2" fill="#21262d" style="animation-delay:1.24s"/>
  <rect class="cell p1" x="468" y="48" width="12" height="12" rx="2" ry="2" fill="#4a3a6b" style="animation-delay:1.28s"/>
  <rect class="cell p2" x="482" y="48" width="12" height="12" rx="2" ry="2" fill="#ff6ec7" style="animation-delay:1.32s"/>
  <rect class="cell p0" x="496" y="48" width="12" height="12" rx="2" ry="2" fill="#21262d" style="animation-delay:1.36s"/>
  <rect class="cell p0" x="510" y="48" width="12" height="12" rx="2" ry="2" fill="#21262d" style="animation-delay:1.40s"/>
  <rect class="cell p4" x="524" y="48" width="12" height="12" rx="2" ry="2" fill="#ffce5c" style="animation-delay:1.44s"/>
  <rect class="cell p0" x="538" y="48" width="12" height="12" rx="2" ry="2" fill="#21262d" style="animation-delay:1.48s"/>
  <rect class="cell p3" x="552" y="48" width="12" height="12" rx="2" ry="2" fill="#00f5ff" style="animation-delay:1.52s"/>
  <rect class="cell p1" x="566" y="48" width="12" height="12" rx="2" ry="2" fill="#4a3a6b" style="animation-delay:1.56s"/>
  <rect class="cell p0" x="580" y="48" width="12" height="12" rx="2" ry="2" fill="#21262d" style="animation-delay:1.60s"/>
  <rect class="cell p0" x="594" y="48" width="12" height="12" rx="2" ry="2" fill="#21262d" style="animation-delay:1.64s"/>
  <rect class="cell p0" x="608" y="48" width="12" height="12" rx="2" ry="2" fill="#21262d" style="animation-delay:1.68s"/>
  <rect class="cell p0" x="622" y="48" width="12" height="12" rx="2" ry="2" fill="#21262d" style="animation-delay:1.72s"/>
  <rect class="cell p4" x="636" y="48" width="12" height="12" rx="2" ry="2" fill="#ffce5c" style="animation-delay:1.76s"/>
  <rect class="cell p0" x="650" y="48" width="12" height="12" rx="2" ry="2" fill="#21262d" style="animation-delay:1.80s"/>
  <rect class="cell p0" x="664" y="48" width="12" height="12" rx="2" ry="2" fill="#21262d" style="animation-delay:1.84s"/>
  <rect class="cell p0" x="678" y="48" width="12" height="12" rx="2" ry="2" fill="#21262d" style="animation-delay:1.88s"/>
  <rect class="cell p0" x="692" y="48" width="12" height="12" rx="2" ry="2" fill="#21262d" style="animation-delay:1.92s"/>
  <rect class="cell p0" x="706" y="48" width="12" height="12" rx="2" ry="2" fill="#21262d" style="animation-delay:1.96s"/>
  <rect class="cell p0" x="720" y="48" width="12" height="12" rx="2" ry="2" fill="#21262d" style="animation-delay:2.00s"/>
  <rect class="cell p0" x="734" y="48" width="12" height="12" rx="2" ry="2" fill="#21262d" style="animation-delay:2.04s"/>
  <rect class="cell p2" x="20" y="62" width="12" height="12" rx="2" ry="2" fill="#ff6ec7" style="animation-delay:0.08s"/>
  <rect class="cell p0" x="34" y="62" width="12" height="12" rx="2" ry="2" fill="#21262d" style="animation-delay:0.12s"/>
  <rect class="cell p0" x="48" y="62" width="12" height="12" rx="2" ry="2" fill="#21262d" style="animation-delay:0.16s"/>
  <rect class="cell p3" x="62" y="62" width="12" height="12" rx="2" ry="2" fill="#00f5ff" style="animation-delay:0.20s"/>
  <rect class="cell p1" x="76" y="62" width="12" height="12" rx="2" ry="2" fill="#4a3a6b" style="animation-delay:0.24s"/>
  <rect class="cell p1" x="90" y="62" width="12" height="12" rx="2" ry="2" fill="#4a3a6b" style="animation-delay:0.28s"/>
  <rect class="cell p0" x="104" y="62" width="12" height="12" rx="2" ry="2" fill="#21262d" style="animation-delay:0.32s"/>
  <rect class="cell p0" x="118" y="62" width="12" height="12" rx="2" ry="2" fill="#21262d" style="animation-delay:0.36s"/>
  <rect class="cell p0" x="132" y="62" width="12" height="12" rx="2" ry="2" fill="#21262d" style="animation-delay:0.40s"/>
  <rect class="cell p1" x="146" y="62" width="12" height="12" rx="2" ry="2" fill="#4a3a6b" style="animation-delay:0.44s"/>
  <rect class="cell p0" x="160" y="62" width="12" height="12" rx="2" ry="2" fill="#21262d" style="animation-delay:0.48s"/>
  <rect class="cell p2" x="174" y="62" width="12" height="12" rx="2" ry="2" fill="#ff6ec7" style="animation-delay:0.52s"/>
  <rect class="cell p2" x="188" y="62" width="12" height="12" rx="2" ry="2" fill="#ff6ec7" style="animation-delay:0.56s"/>
  <rect class="cell p0" x="202" y="62" width="12" height="12" rx="2" ry="2" fill="#21262d" style="animation-delay:0.60s"/>
  <rect class="cell p2" x="216" y="62" width="12" height="12" rx="2" ry="2" fill="#ff6ec7" style="animation-delay:0.64s"/>
  <rect class="cell p0" x="230" y="62" width="12" height="12" rx="2" ry="2" fill="#21262d" style="animation-delay:0.68s"/>
  <rect class="cell p3" x="244" y="62" width="12" height="12" rx="2" ry="2" fill="#00f5ff" style="animation-delay:0.72s"/>
  <rect class="cell p0" x="258" y="62" width="12" height="12" rx="2" ry="2" fill="#21262d" style="animation-delay:0.76s"/>
  <rect class="cell p0" x="272" y="62" width="12" height="12" rx="2" ry="2" fill="#21262d" style="animation-delay:0.80s"/>
  <rect class="cell p3" x="286" y="62" width="12" height="12" rx="2" ry="2" fill="#00f5ff" style="animation-delay:0.84s"/>
  <rect class="cell p0" x="300" y="62" width="12" height="12" rx="2" ry="2" fill="#21262d" style="animation-delay:0.88s"/>
  <rect class="cell p4" x="314" y="62" width="12" height="12" rx="2" ry="2" fill="#ffce5c" style="animation-delay:0.92s"/>
  <rect class="cell p0" x="328" y="62" width="12" height="12" rx="2" ry="2" fill="#21262d" style="animation-delay:0.96s"/>
  <rect class="cell p0" x="342" y="62" width="12" height="12" rx="2" ry="2" fill="#21262d" style="animation-delay:1.00s"/>
  <rect class="cell p0" x="356" y="62" width="12" height="12" rx="2" ry="2" fill="#21262d" style="animation-delay:1.04s"/>
  <rect class="cell p0" x="370" y="62" width="12" height="12" rx="2" ry="2" fill="#21262d" style="animation-delay:1.08s"/>
  <rect class="cell p0" x="384" y="62" width="12" height="12" rx="2" ry="2" fill="#21262d" style="animation-delay:1.12s"/>
  <rect class="cell p0" x="398" y="62" width="12" height="12" rx="2" ry="2" fill="#21262d" style="animation-delay:1.16s"/>
  <rect class="cell p1" x="412" y="62" width="12" height="12" rx="2" ry="2" fill="#4a3a6b" style="animation-delay:1.20s"/>
  <rect class="cell p2" x="426" y="62" width="12" height="12" rx="2" ry="2" fill="#ff6ec7" style="animation-delay:1.24s"/>
  <rect class="cell p0" x="440" y="62" width="12" height="12" rx="2" ry="2" fill="#21262d" style="animation-delay:1.28s"/>
  <rect class="cell p0" x="454" y="62" width="12" height="12" rx="2" ry="2" fill="#21262d" style="animation-delay:1.32s"/>
  <rect class="cell p0" x="468" y="62" width="12" height="12" rx="2" ry="2" fill="#21262d" style="animation-delay:1.36s"/>
  <rect class="cell p0" x="482" y="62" width="12" height="12" rx="2" ry="2" fill="#21262d" style="animation-delay:1.40s"/>
  <rect class="cell p0" x="496" y="62" width="12" height="12" rx="2" ry="2" fill="#21262d" style="animation-delay:1.44s"/>
  <rect class="cell p3" x="510" y="62" width="12" height="12" rx="2" ry="2" fill="#00f5ff" style="animation-delay:1.48s"/>
  <rect class="cell p0" x="524" y="62" width="12" height="12" rx="2" ry="2" fill="#21262d" style="animation-delay:1.52s"/>
  <rect class="cell p3" x="538" y="62" width="12" height="12" rx="2" ry="2" fill="#00f5ff" style="animation-delay:1.56s"/>
  <rect class="cell p3" x="552" y="62" width="12" height="12" rx="2" ry="2" fill="#00f5ff" style="animation-delay:1.60s"/>
  <rect class="cell p2" x="566" y="62" width="12" height="12" rx="2" ry="2" fill="#ff6ec7" style="animation-delay:1.64s"/>
  <rect class="cell p0" x="580" y="62" width="12" height="12" rx="2" ry="2" fill="#21262d" style="animation-delay:1.68s"/>
  <rect class="cell p2" x="594" y="62" width="12" height="12" rx="2" ry="2" fill="#ff6ec7" style="animation-delay:1.72s"/>
  <rect class="cell p2" x="608" y="62" width="12" height="12" rx="2" ry="2" fill="#ff6ec7" style="animation-delay:1.76s"/>
  <rect class="cell p0" x="622" y="62" width="12" height="12" rx="2" ry="2" fill="#21262d" style="animation-delay:1.80s"/>
  <rect class="cell p1" x="636" y="62" width="12" height="12" rx="2" ry="2" fill="#4a3a6b" style="animation-delay:1.84s"/>
  <rect class="cell p3" x="650" y="62" width="12" height="12" rx="2" ry="2" fill="#00f5ff" style="animation-delay:1.88s"/>
  <rect class="cell p0" x="664" y="62" width="12" height="12" rx="2" ry="2" fill="#21262d" style="animation-delay:1.92s"/>
  <rect class="cell p0" x="678" y="62" width="12" height="12" rx="2" ry="2" fill="#21262d" style="animation-delay:1.96s"/>
  <rect class="cell p1" x="692" y="62" width="12" height="12" rx="2" ry="2" fill="#4a3a6b" style="animation-delay:2.00s"/>
  <rect class="cell p0" x="706" y="62" width="12" height="12" rx="2" ry="2" fill="#21262d" style="animation-delay:2.04s"/>
  <rect class="cell p0" x="720" y="62" width="12" height="12" rx="2" ry="2" fill="#21262d" style="animation-delay:2.08s"/>
  <rect class="cell p2" x="734" y="62" width="12" height="12" rx="2" ry="2" fill="#ff6ec7" style="animation-delay:2.12s"/>
  <rect class="cell p3" x="20" y="76" width="12" height="12" rx="2" ry="2" fill="#00f5ff" style="animation-delay:0.16s"/>
  <rect class="cell p1" x="34" y="76" width="12" height="12" rx="2" ry="2" fill="#4a3a6b" style="animation-delay:0.20s"/>
  <rect class="cell p0" x="48" y="76" width="12" height="12" rx="2" ry="2" fill="#21262d" style="animation-delay:0.24s"/>
  <rect class="cell p3" x="62" y="76" width="12" height="12" rx="2" ry="2" fill="#00f5ff" style="animation-delay:0.28s"/>
  <rect class="cell p0" x="76" y="76" width="12" height="12" rx="2" ry="2" fill="#21262d" style="animation-delay:0.32s"/>
  <rect class="cell p4" x="90" y="76" width="12" height="12" rx="2" ry="2" fill="#ffce5c" style="animation-delay:0.36s"/>
  <rect class="cell p4" x="104" y="76" width="12" height="12" rx="2" ry="2" fill="#ffce5c" style="animation-delay:0.40s"/>
  <rect class="cell p0" x="118" y="76" width="12" height="12" rx="2" ry="2" fill="#21262d" style="animation-delay:0.44s"/>
  <rect class="cell p0" x="132" y="76" width="12" height="12" rx="2" ry="2" fill="#21262d" style="animation-delay:0.48s"/>
  <rect class="cell p0" x="146" y="76" width="12" height="12" rx="2" ry="2" fill="#21262d" style="animation-delay:0.52s"/>
  <rect class="cell p0" x="160" y="76" width="12" height="12" rx="2" ry="2" fill="#21262d" style="animation-delay:0.56s"/>
  <rect class="cell p1" x="174" y="76" width="12" height="12" rx="2" ry="2" fill="#4a3a6b" style="animation-delay:0.60s"/>
  <rect class="cell p0" x="188" y="76" width="12" height="12" rx="2" ry="2" fill="#21262d" style="animation-delay:0.64s"/>
  <rect class="cell p0" x="202" y="76" width="12" height="12" rx="2" ry="2" fill="#21262d" style="animation-delay:0.68s"/>
  <rect class="cell p0" x="216" y="76" width="12" height="12" rx="2" ry="2" fill="#21262d" style="animation-delay:0.72s"/>
  <rect class="cell p2" x="230" y="76" width="12" height="12" rx="2" ry="2" fill="#ff6ec7" style="animation-delay:0.76s"/>
  <rect class="cell p3" x="244" y="76" width="12" height="12" rx="2" ry="2" fill="#00f5ff" style="animation-delay:0.80s"/>
  <rect class="cell p0" x="258" y="76" width="12" height="12" rx="2" ry="2" fill="#21262d" style="animation-delay:0.84s"/>
  <rect class="cell p0" x="272" y="76" width="12" height="12" rx="2" ry="2" fill="#21262d" style="animation-delay:0.88s"/>
  <rect class="cell p2" x="286" y="76" width="12" height="12" rx="2" ry="2" fill="#ff6ec7" style="animation-delay:0.92s"/>
  <rect class="cell p1" x="300" y="76" width="12" height="12" rx="2" ry="2" fill="#4a3a6b" style="animation-delay:0.96s"/>
  <rect class="cell p1" x="314" y="76" width="12" height="12" rx="2" ry="2" fill="#4a3a6b" style="animation-delay:1.00s"/>
  <rect class="cell p2" x="328" y="76" width="12" height="12" rx="2" ry="2" fill="#ff6ec7" style="animation-delay:1.04s"/>
  <rect class="cell p1" x="342" y="76" width="12" height="12" rx="2" ry="2" fill="#4a3a6b" style="animation-delay:1.08s"/>
  <rect class="cell p0" x="356" y="76" width="12" height="12" rx="2" ry="2" fill="#21262d" style="animation-delay:1.12s"/>
  <rect class="cell p0" x="370" y="76" width="12" height="12" rx="2" ry="2" fill="#21262d" style="animation-delay:1.16s"/>
  <rect class="cell p0" x="384" y="76" width="12" height="12" rx="2" ry="2" fill="#21262d" style="animation-delay:1.20s"/>
  <rect class="cell p0" x="398" y="76" width="12" height="12" rx="2" ry="2" fill="#21262d" style="animation-delay:1.24s"/>
  <rect class="cell p4" x="412" y="76" width="12" height="12" rx="2" ry="2" fill="#ffce5c" style="animation-delay:1.28s"/>
  <rect class="cell p1" x="426" y="76" width="12" height="12" rx="2" ry="2" fill="#4a3a6b" style="animation-delay:1.32s"/>
  <rect class="cell p1" x="440" y="76" width="12" height="12" rx="2" ry="2" fill="#4a3a6b" style="animation-delay:1.36s"/>
  <rect class="cell p0" x="454" y="76" width="12" height="12" rx="2" ry="2" fill="#21262d" style="animation-delay:1.40s"/>
  <rect class="cell p4" x="468" y="76" width="12" height="12" rx="2" ry="2" fill="#ffce5c" style="animation-delay:1.44s"/>
  <rect class="cell p2" x="482" y="76" width="12" height="12" rx="2" ry="2" fill="#ff6ec7" style="animation-delay:1.48s"/>
  <rect class="cell p1" x="496" y="76" width="12" height="12" rx="2" ry="2" fill="#4a3a6b" style="animation-delay:1.52s"/>
  <rect class="cell p2" x="510" y="76" width="12" height="12" rx="2" ry="2" fill="#ff6ec7" style="animation-delay:1.56s"/>
  <rect class="cell p1" x="524" y="76" width="12" height="12" rx="2" ry="2" fill="#4a3a6b" style="animation-delay:1.60s"/>
  <rect class="cell p0" x="538" y="76" width="12" height="12" rx="2" ry="2" fill="#21262d" style="animation-delay:1.64s"/>
  <rect class="cell p0" x="552" y="76" width="12" height="12" rx="2" ry="2" fill="#21262d" style="animation-delay:1.68s"/>
  <rect class="cell p0" x="566" y="76" width="12" height="12" rx="2" ry="2" fill="#21262d" style="animation-delay:1.72s"/>
  <rect class="cell p1" x="580" y="76" width="12" height="12" rx="2" ry="2" fill="#4a3a6b" style="animation-delay:1.76s"/>
  <rect class="cell p1" x="594" y="76" width="12" height="12" rx="2" ry="2" fill="#4a3a6b" style="animation-delay:1.80s"/>
  <rect class="cell p0" x="608" y="76" width="12" height="12" rx="2" ry="2" fill="#21262d" style="animation-delay:1.84s"/>
  <rect class="cell p4" x="622" y="76" width="12" height="12" rx="2" ry="2" fill="#ffce5c" style="animation-delay:1.88s"/>
  <rect class="cell p0" x="636" y="76" width="12" height="12" rx="2" ry="2" fill="#21262d" style="animation-delay:1.92s"/>
  <rect class="cell p0" x="650" y="76" width="12" height="12" rx="2" ry="2" fill="#21262d" style="animation-delay:1.96s"/>
  <rect class="cell p0" x="664" y="76" width="12" height="12" rx="2" ry="2" fill="#21262d" style="animation-delay:2.00s"/>
  <rect class="cell p2" x="678" y="76" width="12" height="12" rx="2" ry="2" fill="#ff6ec7" style="animation-delay:2.04s"/>
  <rect class="cell p0" x="692" y="76" width="12" height="12" rx="2" ry="2" fill="#21262d" style="animation-delay:2.08s"/>
  <rect class="cell p3" x="706" y="76" width="12" height="12" rx="2" ry="2" fill="#00f5ff" style="animation-delay:2.12s"/>
  <rect class="cell p1" x="720" y="76" width="12" height="12" rx="2" ry="2" fill="#4a3a6b" style="animation-delay:2.16s"/>
  <rect class="cell p2" x="734" y="76" width="12" height="12" rx="2" ry="2" fill="#ff6ec7" style="animation-delay:2.20s"/>
  <rect class="cell p0" x="20" y="90" width="12" height="12" rx="2" ry="2" fill="#21262d" style="animation-delay:0.24s"/>
  <rect class="cell p0" x="34" y="90" width="12" height="12" rx="2" ry="2" fill="#21262d" style="animation-delay:0.28s"/>
  <rect class="cell p0" x="48" y="90" width="12" height="12" rx="2" ry="2" fill="#21262d" style="animation-delay:0.32s"/>
  <rect class="cell p2" x="62" y="90" width="12" height="12" rx="2" ry="2" fill="#ff6ec7" style="animation-delay:0.36s"/>
  <rect class="cell p1" x="76" y="90" width="12" height="12" rx="2" ry="2" fill="#4a3a6b" style="animation-delay:0.40s"/>
  <rect class="cell p1" x="90" y="90" width="12" height="12" rx="2" ry="2" fill="#4a3a6b" style="animation-delay:0.44s"/>
  <rect class="cell p0" x="104" y="90" width="12" height="12" rx="2" ry="2" fill="#21262d" style="animation-delay:0.48s"/>
  <rect class="cell p1" x="118" y="90" width="12" height="12" rx="2" ry="2" fill="#4a3a6b" style="animation-delay:0.52s"/>
  <rect class="cell p0" x="132" y="90" width="12" height="12" rx="2" ry="2" fill="#21262d" style="animation-delay:0.56s"/>
  <rect class="cell p3" x="146" y="90" width="12" height="12" rx="2" ry="2" fill="#00f5ff" style="animation-delay:0.60s"/>
  <rect class="cell p3" x="160" y="90" width="12" height="12" rx="2" ry="2" fill="#00f5ff" style="animation-delay:0.64s"/>
  <rect class="cell p0" x="174" y="90" width="12" height="12" rx="2" ry="2" fill="#21262d" style="animation-delay:0.68s"/>
  <rect class="cell p3" x="188" y="90" width="12" height="12" rx="2" ry="2" fill="#00f5ff" style="animation-delay:0.72s"/>
  <rect class="cell p1" x="202" y="90" width="12" height="12" rx="2" ry="2" fill="#4a3a6b" style="animation-delay:0.76s"/>
  <rect class="cell p4" x="216" y="90" width="12" height="12" rx="2" ry="2" fill="#ffce5c" style="animation-delay:0.80s"/>
  <rect class="cell p0" x="230" y="90" width="12" height="12" rx="2" ry="2" fill="#21262d" style="animation-delay:0.84s"/>
  <rect class="cell p4" x="244" y="90" width="12" height="12" rx="2" ry="2" fill="#ffce5c" style="animation-delay:0.88s"/>
  <rect class="cell p2" x="258" y="90" width="12" height="12" rx="2" ry="2" fill="#ff6ec7" style="animation-delay:0.92s"/>
  <rect class="cell p0" x="272" y="90" width="12" height="12" rx="2" ry="2" fill="#21262d" style="animation-delay:0.96s"/>
  <rect class="cell p0" x="286" y="90" width="12" height="12" rx="2" ry="2" fill="#21262d" style="animation-delay:1.00s"/>
  <rect class="cell p0" x="300" y="90" width="12" height="12" rx="2" ry="2" fill="#21262d" style="animation-delay:1.04s"/>
  <rect class="cell p1" x="314" y="90" width="12" height="12" rx="2" ry="2" fill="#4a3a6b" style="animation-delay:1.08s"/>
  <rect class="cell p0" x="328" y="90" width="12" height="12" rx="2" ry="2" fill="#21262d" style="animation-delay:1.12s"/>
  <rect class="cell p1" x="342" y="90" width="12" height="12" rx="2" ry="2" fill="#4a3a6b" style="animation-delay:1.16s"/>
  <rect class="cell p0" x="356" y="90" width="12" height="12" rx="2" ry="2" fill="#21262d" style="animation-delay:1.20s"/>
  <rect class="cell p3" x="370" y="90" width="12" height="12" rx="2" ry="2" fill="#00f5ff" style="animation-delay:1.24s"/>
  <rect class="cell p3" x="384" y="90" width="12" height="12" rx="2" ry="2" fill="#00f5ff" style="animation-delay:1.28s"/>
  <rect class="cell p0" x="398" y="90" width="12" height="12" rx="2" ry="2" fill="#21262d" style="animation-delay:1.32s"/>
  <rect class="cell p1" x="412" y="90" width="12" height="12" rx="2" ry="2" fill="#4a3a6b" style="animation-delay:1.36s"/>
  <rect class="cell p4" x="426" y="90" width="12" height="12" rx="2" ry="2" fill="#ffce5c" style="animation-delay:1.40s"/>
  <rect class="cell p0" x="440" y="90" width="12" height="12" rx="2" ry="2" fill="#21262d" style="animation-delay:1.44s"/>
  <rect class="cell p1" x="454" y="90" width="12" height="12" rx="2" ry="2" fill="#4a3a6b" style="animation-delay:1.48s"/>
  <rect class="cell p0" x="468" y="90" width="12" height="12" rx="2" ry="2" fill="#21262d" style="animation-delay:1.52s"/>
  <rect class="cell p2" x="482" y="90" width="12" height="12" rx="2" ry="2" fill="#ff6ec7" style="animation-delay:1.56s"/>
  <rect class="cell p0" x="496" y="90" width="12" height="12" rx="2" ry="2" fill="#21262d" style="animation-delay:1.60s"/>
  <rect class="cell p2" x="510" y="90" width="12" height="12" rx="2" ry="2" fill="#ff6ec7" style="animation-delay:1.64s"/>
  <rect class="cell p1" x="524" y="90" width="12" height="12" rx="2" ry="2" fill="#4a3a6b" style="animation-delay:1.68s"/>
  <rect class="cell p2" x="538" y="90" width="12" height="12" rx="2" ry="2" fill="#ff6ec7" style="animation-delay:1.72s"/>
  <rect class="cell p0" x="552" y="90" width="12" height="12" rx="2" ry="2" fill="#21262d" style="animation-delay:1.76s"/>
  <rect class="cell p0" x="566" y="90" width="12" height="12" rx="2" ry="2" fill="#21262d" style="animation-delay:1.80s"/>
  <rect class="cell p0" x="580" y="90" width="12" height="12" rx="2" ry="2" fill="#21262d" style="animation-delay:1.84s"/>
  <rect class="cell p4" x="594" y="90" width="12" height="12" rx="2" ry="2" fill="#ffce5c" style="animation-delay:1.88s"/>
  <rect class="cell p0" x="608" y="90" width="12" height="12" rx="2" ry="2" fill="#21262d" style="animation-delay:1.92s"/>
  <rect class="cell p1" x="622" y="90" width="12" height="12" rx="2" ry="2" fill="#4a3a6b" style="animation-delay:1.96s"/>
  <rect class="cell p4" x="636" y="90" width="12" height="12" rx="2" ry="2" fill="#ffce5c" style="animation-delay:2.00s"/>
  <rect class="cell p1" x="650" y="90" width="12" height="12" rx="2" ry="2" fill="#4a3a6b" style="animation-delay:2.04s"/>
  <rect class="cell p0" x="664" y="90" width="12" height="12" rx="2" ry="2" fill="#21262d" style="animation-delay:2.08s"/>
  <rect class="cell p2" x="678" y="90" width="12" height="12" rx="2" ry="2" fill="#ff6ec7" style="animation-delay:2.12s"/>
  <rect class="cell p0" x="692" y="90" width="12" height="12" rx="2" ry="2" fill="#21262d" style="animation-delay:2.16s"/>
  <rect class="cell p1" x="706" y="90" width="12" height="12" rx="2" ry="2" fill="#4a3a6b" style="animation-delay:2.20s"/>
  <rect class="cell p0" x="720" y="90" width="12" height="12" rx="2" ry="2" fill="#21262d" style="animation-delay:2.24s"/>
  <rect class="cell p0" x="734" y="90" width="12" height="12" rx="2" ry="2" fill="#21262d" style="animation-delay:2.28s"/>
  <rect class="cell p0" x="20" y="104" width="12" height="12" rx="2" ry="2" fill="#21262d" style="animation-delay:0.32s"/>
  <rect class="cell p0" x="34" y="104" width="12" height="12" rx="2" ry="2" fill="#21262d" style="animation-delay:0.36s"/>
  <rect class="cell p0" x="48" y="104" width="12" height="12" rx="2" ry="2" fill="#21262d" style="animation-delay:0.40s"/>
  <rect class="cell p0" x="62" y="104" width="12" height="12" rx="2" ry="2" fill="#21262d" style="animation-delay:0.44s"/>
  <rect class="cell p0" x="76" y="104" width="12" height="12" rx="2" ry="2" fill="#21262d" style="animation-delay:0.48s"/>
  <rect class="cell p2" x="90" y="104" width="12" height="12" rx="2" ry="2" fill="#ff6ec7" style="animation-delay:0.52s"/>
  <rect class="cell p0" x="104" y="104" width="12" height="12" rx="2" ry="2" fill="#21262d" style="animation-delay:0.56s"/>
  <rect class="cell p0" x="118" y="104" width="12" height="12" rx="2" ry="2" fill="#21262d" style="animation-delay:0.60s"/>
  <rect class="cell p3" x="132" y="104" width="12" height="12" rx="2" ry="2" fill="#00f5ff" style="animation-delay:0.64s"/>
  <rect class="cell p1" x="146" y="104" width="12" height="12" rx="2" ry="2" fill="#4a3a6b" style="animation-delay:0.68s"/>
  <rect class="cell p0" x="160" y="104" width="12" height="12" rx="2" ry="2" fill="#21262d" style="animation-delay:0.72s"/>
  <rect class="cell p4" x="174" y="104" width="12" height="12" rx="2" ry="2" fill="#ffce5c" style="animation-delay:0.76s"/>
  <rect class="cell p1" x="188" y="104" width="12" height="12" rx="2" ry="2" fill="#4a3a6b" style="animation-delay:0.80s"/>
  <rect class="cell p4" x="202" y="104" width="12" height="12" rx="2" ry="2" fill="#ffce5c" style="animation-delay:0.84s"/>
  <rect class="cell p0" x="216" y="104" width="12" height="12" rx="2" ry="2" fill="#21262d" style="animation-delay:0.88s"/>
  <rect class="cell p0" x="230" y="104" width="12" height="12" rx="2" ry="2" fill="#21262d" style="animation-delay:0.92s"/>
  <rect class="cell p3" x="244" y="104" width="12" height="12" rx="2" ry="2" fill="#00f5ff" style="animation-delay:0.96s"/>
  <rect class="cell p1" x="258" y="104" width="12" height="12" rx="2" ry="2" fill="#4a3a6b" style="animation-delay:1.00s"/>
  <rect class="cell p1" x="272" y="104" width="12" height="12" rx="2" ry="2" fill="#4a3a6b" style="animation-delay:1.04s"/>
  <rect class="cell p0" x="286" y="104" width="12" height="12" rx="2" ry="2" fill="#21262d" style="animation-delay:1.08s"/>
  <rect class="cell p0" x="300" y="104" width="12" height="12" rx="2" ry="2" fill="#21262d" style="animation-delay:1.12s"/>
  <rect class="cell p1" x="314" y="104" width="12" height="12" rx="2" ry="2" fill="#4a3a6b" style="animation-delay:1.16s"/>
  <rect class="cell p2" x="328" y="104" width="12" height="12" rx="2" ry="2" fill="#ff6ec7" style="animation-delay:1.20s"/>
  <rect class="cell p1" x="342" y="104" width="12" height="12" rx="2" ry="2" fill="#4a3a6b" style="animation-delay:1.24s"/>
  <rect class="cell p0" x="356" y="104" width="12" height="12" rx="2" ry="2" fill="#21262d" style="animation-delay:1.28s"/>
  <rect class="cell p1" x="370" y="104" width="12" height="12" rx="2" ry="2" fill="#4a3a6b" style="animation-delay:1.32s"/>
  <rect class="cell p4" x="384" y="104" width="12" height="12" rx="2" ry="2" fill="#ffce5c" style="animation-delay:1.36s"/>
  <rect class="cell p3" x="398" y="104" width="12" height="12" rx="2" ry="2" fill="#00f5ff" style="animation-delay:1.40s"/>
  <rect class="cell p3" x="412" y="104" width="12" height="12" rx="2" ry="2" fill="#00f5ff" style="animation-delay:1.44s"/>
  <rect class="cell p0" x="426" y="104" width="12" height="12" rx="2" ry="2" fill="#21262d" style="animation-delay:1.48s"/>
  <rect class="cell p3" x="440" y="104" width="12" height="12" rx="2" ry="2" fill="#00f5ff" style="animation-delay:1.52s"/>
  <rect class="cell p0" x="454" y="104" width="12" height="12" rx="2" ry="2" fill="#21262d" style="animation-delay:1.56s"/>
  <rect class="cell p1" x="468" y="104" width="12" height="12" rx="2" ry="2" fill="#4a3a6b" style="animation-delay:1.60s"/>
  <rect class="cell p3" x="482" y="104" width="12" height="12" rx="2" ry="2" fill="#00f5ff" style="animation-delay:1.64s"/>
  <rect class="cell p2" x="496" y="104" width="12" height="12" rx="2" ry="2" fill="#ff6ec7" style="animation-delay:1.68s"/>
  <rect class="cell p0" x="510" y="104" width="12" height="12" rx="2" ry="2" fill="#21262d" style="animation-delay:1.72s"/>
  <rect class="cell p1" x="524" y="104" width="12" height="12" rx="2" ry="2" fill="#4a3a6b" style="animation-delay:1.76s"/>
  <rect class="cell p1" x="538" y="104" width="12" height="12" rx="2" ry="2" fill="#4a3a6b" style="animation-delay:1.80s"/>
  <rect class="cell p1" x="552" y="104" width="12" height="12" rx="2" ry="2" fill="#4a3a6b" style="animation-delay:1.84s"/>
  <rect class="cell p0" x="566" y="104" width="12" height="12" rx="2" ry="2" fill="#21262d" style="animation-delay:1.88s"/>
  <rect class="cell p0" x="580" y="104" width="12" height="12" rx="2" ry="2" fill="#21262d" style="animation-delay:1.92s"/>
  <rect class="cell p0" x="594" y="104" width="12" height="12" rx="2" ry="2" fill="#21262d" style="animation-delay:1.96s"/>
  <rect class="cell p0" x="608" y="104" width="12" height="12" rx="2" ry="2" fill="#21262d" style="animation-delay:2.00s"/>
  <rect class="cell p0" x="622" y="104" width="12" height="12" rx="2" ry="2" fill="#21262d" style="animation-delay:2.04s"/>
  <rect class="cell p0" x="636" y="104" width="12" height="12" rx="2" ry="2" fill="#21262d" style="animation-delay:2.08s"/>
  <rect class="cell p2" x="650" y="104" width="12" height="12" rx="2" ry="2" fill="#ff6ec7" style="animation-delay:2.12s"/>
  <rect class="cell p1" x="664" y="104" width="12" height="12" rx="2" ry="2" fill="#4a3a6b" style="animation-delay:2.16s"/>
  <rect class="cell p0" x="678" y="104" width="12" height="12" rx="2" ry="2" fill="#21262d" style="animation-delay:2.20s"/>
  <rect class="cell p2" x="692" y="104" width="12" height="12" rx="2" ry="2" fill="#ff6ec7" style="animation-delay:2.24s"/>
  <rect class="cell p0" x="706" y="104" width="12" height="12" rx="2" ry="2" fill="#21262d" style="animation-delay:2.28s"/>
  <rect class="cell p0" x="720" y="104" width="12" height="12" rx="2" ry="2" fill="#21262d" style="animation-delay:2.32s"/>
  <rect class="cell p0" x="734" y="104" width="12" height="12" rx="2" ry="2" fill="#21262d" style="animation-delay:2.36s"/>
  <rect class="cell p3" x="20" y="118" width="12" height="12" rx="2" ry="2" fill="#00f5ff" style="animation-delay:0.40s"/>
  <rect class="cell p2" x="34" y="118" width="12" height="12" rx="2" ry="2" fill="#ff6ec7" style="animation-delay:0.44s"/>
  <rect class="cell p0" x="48" y="118" width="12" height="12" rx="2" ry="2" fill="#21262d" style="animation-delay:0.48s"/>
  <rect class="cell p0" x="62" y="118" width="12" height="12" rx="2" ry="2" fill="#21262d" style="animation-delay:0.52s"/>
  <rect class="cell p0" x="76" y="118" width="12" height="12" rx="2" ry="2" fill="#21262d" style="animation-delay:0.56s"/>
  <rect class="cell p0" x="90" y="118" width="12" height="12" rx="2" ry="2" fill="#21262d" style="animation-delay:0.60s"/>
  <rect class="cell p0" x="104" y="118" width="12" height="12" rx="2" ry="2" fill="#21262d" style="animation-delay:0.64s"/>
  <rect class="cell p0" x="118" y="118" width="12" height="12" rx="2" ry="2" fill="#21262d" style="animation-delay:0.68s"/>
  <rect class="cell p1" x="132" y="118" width="12" height="12" rx="2" ry="2" fill="#4a3a6b" style="animation-delay:0.72s"/>
  <rect class="cell p0" x="146" y="118" width="12" height="12" rx="2" ry="2" fill="#21262d" style="animation-delay:0.76s"/>
  <rect class="cell p0" x="160" y="118" width="12" height="12" rx="2" ry="2" fill="#21262d" style="animation-delay:0.80s"/>
  <rect class="cell p3" x="174" y="118" width="12" height="12" rx="2" ry="2" fill="#00f5ff" style="animation-delay:0.84s"/>
  <rect class="cell p1" x="188" y="118" width="12" height="12" rx="2" ry="2" fill="#4a3a6b" style="animation-delay:0.88s"/>
  <rect class="cell p0" x="202" y="118" width="12" height="12" rx="2" ry="2" fill="#21262d" style="animation-delay:0.92s"/>
  <rect class="cell p1" x="216" y="118" width="12" height="12" rx="2" ry="2" fill="#4a3a6b" style="animation-delay:0.96s"/>
  <rect class="cell p0" x="230" y="118" width="12" height="12" rx="2" ry="2" fill="#21262d" style="animation-delay:1.00s"/>
  <rect class="cell p3" x="244" y="118" width="12" height="12" rx="2" ry="2" fill="#00f5ff" style="animation-delay:1.04s"/>
  <rect class="cell p2" x="258" y="118" width="12" height="12" rx="2" ry="2" fill="#ff6ec7" style="animation-delay:1.08s"/>
  <rect class="cell p2" x="272" y="118" width="12" height="12" rx="2" ry="2" fill="#ff6ec7" style="animation-delay:1.12s"/>
  <rect class="cell p1" x="286" y="118" width="12" height="12" rx="2" ry="2" fill="#4a3a6b" style="animation-delay:1.16s"/>
  <rect class="cell p0" x="300" y="118" width="12" height="12" rx="2" ry="2" fill="#21262d" style="animation-delay:1.20s"/>
  <rect class="cell p1" x="314" y="118" width="12" height="12" rx="2" ry="2" fill="#4a3a6b" style="animation-delay:1.24s"/>
  <rect class="cell p1" x="328" y="118" width="12" height="12" rx="2" ry="2" fill="#4a3a6b" style="animation-delay:1.28s"/>
  <rect class="cell p0" x="342" y="118" width="12" height="12" rx="2" ry="2" fill="#21262d" style="animation-delay:1.32s"/>
  <rect class="cell p0" x="356" y="118" width="12" height="12" rx="2" ry="2" fill="#21262d" style="animation-delay:1.36s"/>
  <rect class="cell p0" x="370" y="118" width="12" height="12" rx="2" ry="2" fill="#21262d" style="animation-delay:1.40s"/>
  <rect class="cell p3" x="384" y="118" width="12" height="12" rx="2" ry="2" fill="#00f5ff" style="animation-delay:1.44s"/>
  <rect class="cell p1" x="398" y="118" width="12" height="12" rx="2" ry="2" fill="#4a3a6b" style="animation-delay:1.48s"/>
  <rect class="cell p0" x="412" y="118" width="12" height="12" rx="2" ry="2" fill="#21262d" style="animation-delay:1.52s"/>
  <rect class="cell p1" x="426" y="118" width="12" height="12" rx="2" ry="2" fill="#4a3a6b" style="animation-delay:1.56s"/>
  <rect class="cell p1" x="440" y="118" width="12" height="12" rx="2" ry="2" fill="#4a3a6b" style="animation-delay:1.60s"/>
  <rect class="cell p1" x="454" y="118" width="12" height="12" rx="2" ry="2" fill="#4a3a6b" style="animation-delay:1.64s"/>
  <rect class="cell p3" x="468" y="118" width="12" height="12" rx="2" ry="2" fill="#00f5ff" style="animation-delay:1.68s"/>
  <rect class="cell p0" x="482" y="118" width="12" height="12" rx="2" ry="2" fill="#21262d" style="animation-delay:1.72s"/>
  <rect class="cell p3" x="496" y="118" width="12" height="12" rx="2" ry="2" fill="#00f5ff" style="animation-delay:1.76s"/>
  <rect class="cell p2" x="510" y="118" width="12" height="12" rx="2" ry="2" fill="#ff6ec7" style="animation-delay:1.80s"/>
  <rect class="cell p2" x="524" y="118" width="12" height="12" rx="2" ry="2" fill="#ff6ec7" style="animation-delay:1.84s"/>
  <rect class="cell p0" x="538" y="118" width="12" height="12" rx="2" ry="2" fill="#21262d" style="animation-delay:1.88s"/>
  <rect class="cell p0" x="552" y="118" width="12" height="12" rx="2" ry="2" fill="#21262d" style="animation-delay:1.92s"/>
  <rect class="cell p1" x="566" y="118" width="12" height="12" rx="2" ry="2" fill="#4a3a6b" style="animation-delay:1.96s"/>
  <rect class="cell p3" x="580" y="118" width="12" height="12" rx="2" ry="2" fill="#00f5ff" style="animation-delay:2.00s"/>
  <rect class="cell p0" x="594" y="118" width="12" height="12" rx="2" ry="2" fill="#21262d" style="animation-delay:2.04s"/>
  <rect class="cell p0" x="608" y="118" width="12" height="12" rx="2" ry="2" fill="#21262d" style="animation-delay:2.08s"/>
  <rect class="cell p0" x="622" y="118" width="12" height="12" rx="2" ry="2" fill="#21262d" style="animation-delay:2.12s"/>
  <rect class="cell p0" x="636" y="118" width="12" height="12" rx="2" ry="2" fill="#21262d" style="animation-delay:2.16s"/>
  <rect class="cell p0" x="650" y="118" width="12" height="12" rx="2" ry="2" fill="#21262d" style="animation-delay:2.20s"/>
  <rect class="cell p1" x="664" y="118" width="12" height="12" rx="2" ry="2" fill="#4a3a6b" style="animation-delay:2.24s"/>
  <rect class="cell p1" x="678" y="118" width="12" height="12" rx="2" ry="2" fill="#4a3a6b" style="animation-delay:2.28s"/>
  <rect class="cell p0" x="692" y="118" width="12" height="12" rx="2" ry="2" fill="#21262d" style="animation-delay:2.32s"/>
  <rect class="cell p1" x="706" y="118" width="12" height="12" rx="2" ry="2" fill="#4a3a6b" style="animation-delay:2.36s"/>
  <rect class="cell p0" x="720" y="118" width="12" height="12" rx="2" ry="2" fill="#21262d" style="animation-delay:0.00s"/>
  <rect class="cell p0" x="734" y="118" width="12" height="12" rx="2" ry="2" fill="#21262d" style="animation-delay:0.04s"/>
  <rect class="cell p1" x="20" y="132" width="12" height="12" rx="2" ry="2" fill="#4a3a6b" style="animation-delay:0.48s"/>
  <rect class="cell p0" x="34" y="132" width="12" height="12" rx="2" ry="2" fill="#21262d" style="animation-delay:0.52s"/>
  <rect class="cell p0" x="48" y="132" width="12" height="12" rx="2" ry="2" fill="#21262d" style="animation-delay:0.56s"/>
  <rect class="cell p1" x="62" y="132" width="12" height="12" rx="2" ry="2" fill="#4a3a6b" style="animation-delay:0.60s"/>
  <rect class="cell p1" x="76" y="132" width="12" height="12" rx="2" ry="2" fill="#4a3a6b" style="animation-delay:0.64s"/>
  <rect class="cell p0" x="90" y="132" width="12" height="12" rx="2" ry="2" fill="#21262d" style="animation-delay:0.68s"/>
  <rect class="cell p0" x="104" y="132" width="12" height="12" rx="2" ry="2" fill="#21262d" style="animation-delay:0.72s"/>
  <rect class="cell p2" x="118" y="132" width="12" height="12" rx="2" ry="2" fill="#ff6ec7" style="animation-delay:0.76s"/>
  <rect class="cell p1" x="132" y="132" width="12" height="12" rx="2" ry="2" fill="#4a3a6b" style="animation-delay:0.80s"/>
  <rect class="cell p0" x="146" y="132" width="12" height="12" rx="2" ry="2" fill="#21262d" style="animation-delay:0.84s"/>
  <rect class="cell p0" x="160" y="132" width="12" height="12" rx="2" ry="2" fill="#21262d" style="animation-delay:0.88s"/>
  <rect class="cell p4" x="174" y="132" width="12" height="12" rx="2" ry="2" fill="#ffce5c" style="animation-delay:0.92s"/>
  <rect class="cell p0" x="188" y="132" width="12" height="12" rx="2" ry="2" fill="#21262d" style="animation-delay:0.96s"/>
  <rect class="cell p0" x="202" y="132" width="12" height="12" rx="2" ry="2" fill="#21262d" style="animation-delay:1.00s"/>
  <rect class="cell p1" x="216" y="132" width="12" height="12" rx="2" ry="2" fill="#4a3a6b" style="animation-delay:1.04s"/>
  <rect class="cell p1" x="230" y="132" width="12" height="12" rx="2" ry="2" fill="#4a3a6b" style="animation-delay:1.08s"/>
  <rect class="cell p1" x="244" y="132" width="12" height="12" rx="2" ry="2" fill="#4a3a6b" style="animation-delay:1.12s"/>
  <rect class="cell p0" x="258" y="132" width="12" height="12" rx="2" ry="2" fill="#21262d" style="animation-delay:1.16s"/>
  <rect class="cell p1" x="272" y="132" width="12" height="12" rx="2" ry="2" fill="#4a3a6b" style="animation-delay:1.20s"/>
  <rect class="cell p0" x="286" y="132" width="12" height="12" rx="2" ry="2" fill="#21262d" style="animation-delay:1.24s"/>
  <rect class="cell p0" x="300" y="132" width="12" height="12" rx="2" ry="2" fill="#21262d" style="animation-delay:1.28s"/>
  <rect class="cell p0" x="314" y="132" width="12" height="12" rx="2" ry="2" fill="#21262d" style="animation-delay:1.32s"/>
  <rect class="cell p0" x="328" y="132" width="12" height="12" rx="2" ry="2" fill="#21262d" style="animation-delay:1.36s"/>
  <rect class="cell p0" x="342" y="132" width="12" height="12" rx="2" ry="2" fill="#21262d" style="animation-delay:1.40s"/>
  <rect class="cell p0" x="356" y="132" width="12" height="12" rx="2" ry="2" fill="#21262d" style="animation-delay:1.44s"/>
  <rect class="cell p1" x="370" y="132" width="12" height="12" rx="2" ry="2" fill="#4a3a6b" style="animation-delay:1.48s"/>
  <rect class="cell p0" x="384" y="132" width="12" height="12" rx="2" ry="2" fill="#21262d" style="animation-delay:1.52s"/>
  <rect class="cell p1" x="398" y="132" width="12" height="12" rx="2" ry="2" fill="#4a3a6b" style="animation-delay:1.56s"/>
  <rect class="cell p3" x="412" y="132" width="12" height="12" rx="2" ry="2" fill="#00f5ff" style="animation-delay:1.60s"/>
  <rect class="cell p3" x="426" y="132" width="12" height="12" rx="2" ry="2" fill="#00f5ff" style="animation-delay:1.64s"/>
  <rect class="cell p1" x="440" y="132" width="12" height="12" rx="2" ry="2" fill="#4a3a6b" style="animation-delay:1.68s"/>
  <rect class="cell p3" x="454" y="132" width="12" height="12" rx="2" ry="2" fill="#00f5ff" style="animation-delay:1.72s"/>
  <rect class="cell p3" x="468" y="132" width="12" height="12" rx="2" ry="2" fill="#00f5ff" style="animation-delay:1.76s"/>
  <rect class="cell p1" x="482" y="132" width="12" height="12" rx="2" ry="2" fill="#4a3a6b" style="animation-delay:1.80s"/>
  <rect class="cell p0" x="496" y="132" width="12" height="12" rx="2" ry="2" fill="#21262d" style="animation-delay:1.84s"/>
  <rect class="cell p0" x="510" y="132" width="12" height="12" rx="2" ry="2" fill="#21262d" style="animation-delay:1.88s"/>
  <rect class="cell p0" x="524" y="132" width="12" height="12" rx="2" ry="2" fill="#21262d" style="animation-delay:1.92s"/>
  <rect class="cell p0" x="538" y="132" width="12" height="12" rx="2" ry="2" fill="#21262d" style="animation-delay:1.96s"/>
  <rect class="cell p0" x="552" y="132" width="12" height="12" rx="2" ry="2" fill="#21262d" style="animation-delay:2.00s"/>
  <rect class="cell p2" x="566" y="132" width="12" height="12" rx="2" ry="2" fill="#ff6ec7" style="animation-delay:2.04s"/>
  <rect class="cell p4" x="580" y="132" width="12" height="12" rx="2" ry="2" fill="#ffce5c" style="animation-delay:2.08s"/>
  <rect class="cell p1" x="594" y="132" width="12" height="12" rx="2" ry="2" fill="#4a3a6b" style="animation-delay:2.12s"/>
  <rect class="cell p0" x="608" y="132" width="12" height="12" rx="2" ry="2" fill="#21262d" style="animation-delay:2.16s"/>
  <rect class="cell p4" x="622" y="132" width="12" height="12" rx="2" ry="2" fill="#ffce5c" style="animation-delay:2.20s"/>
  <rect class="cell p0" x="636" y="132" width="12" height="12" rx="2" ry="2" fill="#21262d" style="animation-delay:2.24s"/>
  <rect class="cell p0" x="650" y="132" width="12" height="12" rx="2" ry="2" fill="#21262d" style="animation-delay:2.28s"/>
  <rect class="cell p0" x="664" y="132" width="12" height="12" rx="2" ry="2" fill="#21262d" style="animation-delay:2.32s"/>
  <rect class="cell p2" x="678" y="132" width="12" height="12" rx="2" ry="2" fill="#ff6ec7" style="animation-delay:2.36s"/>
  <rect class="cell p1" x="692" y="132" width="12" height="12" rx="2" ry="2" fill="#4a3a6b" style="animation-delay:0.00s"/>
  <rect class="cell p1" x="706" y="132" width="12" height="12" rx="2" ry="2" fill="#4a3a6b" style="animation-delay:0.04s"/>
  <rect class="cell p1" x="720" y="132" width="12" height="12" rx="2" ry="2" fill="#4a3a6b" style="animation-delay:0.08s"/>
  <rect class="cell p0" x="734" y="132" width="12" height="12" rx="2" ry="2" fill="#21262d" style="animation-delay:0.12s"/>
  <rect class="scan-layer" x="0" y="44" width="766" height="106" fill="url(#scan)"/>
</svg>
